# AST/ASF file generated using VICON BodyLanguage
# -----------------------------------------------
:version 1.10
:name VICON
:units
  mass 1.0
  length 0.45
  angle deg
:documentation
   .ast/.asf automatically generated from VICON data using
   VICON BodyBuilder and BodyLanguage model FoxedUp or BRILLIANT.MOD
:root
   order TX TY TZ RX RY RZ
   axis XYZ
   position 0 0 0  
   orientation 0 0 0 
:bonedata
  begin
     id 1 
     name lhipjoint
     direction 0.650112 -0.723553 0.232005 
     length 2.45805 
     axis 0 0 0  XYZ
  end
  begin
     id 2 
     name lfemur
     direction 0.34202 -0.939693 0  
     length 7.00073  
     axis 0 0 20  XYZ
    dof rx ry rz
    limits (-160.0 20.0)
           (-70.0 70.0)
           (-60.0 70.0)
  end
  begin
     id 3 
     name ltibia
     direction 0.34202 -0.939693 0   
     length 7.8748   
     axis 0 0 20   XYZ
    dof rx
    limits (-10.0 170.0)
  end
  begin
     id 4 
     name lfoot
     direction 0.0542825 -0.14914 0.987325   
     length 1.75978   
     axis -90 7.62852e-016 20   XYZ
    dof rx rz
    limits (-45.0 90.0)
           (-70.0 20.0)
  end
  begin
     id 5 
     name ltoes
     direction 1.53509e-011 -4.21906e-011 1   
     length 0.893912   
     axis -90 7.62852e-016 20   XYZ
    dof rx
    limits (-90.0 20.0)
  end
  begin
     id 6 
     name rhipjoint
     direction -0.637897 -0.733345 0.235145   
     length 2.42522  
     axis 0 0 0  XYZ 
  end
  begin
     id 7 
     name rfemur
     direction -0.34202 -0.939693 0   
     length 7.02549   
     axis 0 0 -20   XYZ
    dof rx ry rz
    limits (-160.0 20.0)
           (-70.0 70.0)
           (-70.0 60.0)
  end
  begin
     id 8 
     name rtibia
     direction -0.34202 -0.939693 0   
     length 7.71512   
     axis 0 0 -20   XYZ
    dof rx
    limits (-10.0 170.0)
 end
 begin
     id 9 
     name rfoot
     direction -0.0822618 -0.226012 0.970645   
     length 1.90014  
     axis -90 -7.62852e-016 -20   XYZ
    dof rx rz
    limits (-45.0 90.0)
           (-20.0 70.0)
  end
  begin
     id 10 
     name rtoes
     direction -1.53542e-011 -4.21872e-011 1   
     length 0.957341   
     axis -90 -7.62852e-016 -20   XYZ
    dof rx
    limits (-90.0 20.0)
  end
  begin
     id 11 
     name lowerback
     direction -0.0022947 0.999774 -0.0211557   
     length 1.89909   
     axis 0 0 0   XYZ
    dof rx ry rz
    limits (-20.0 45.0)
           (-30.0 30.0)
           (-30.0 30.0)
  end
  begin
     id 12 
     name upperback
     direction 0.0107737 0.998635 0.0511027   
     length 1.8853   
     axis 0 0 0   XYZ
    dof rx ry rz
    limits (-20.0 45.0)
           (-30.0 30.0)
           (-30.0 30.0)
  end
  begin
     id 13 
     name thorax
     direction 0.011824 0.998136 0.0598754   
     length 1.88911   
     axis 0 0 0   XYZ
    dof rx ry rz
    limits (-20.0 45.0)
           (-30.0 30.0)
           (-30.0 30.0)
  end
  begin
     id 14 
     name lowerneck
     direction -0.0685355 0.990319 0.120714   
     length 1.91222   
     axis 0 0 0   XYZ
    dof rx ry rz
    limits (-20.0 45.0)
           (-30.0 30.0)
           (-30.0 30.0)
  end
  begin
     id 15 
     name upperneck
     direction 0.0886204 0.955665 -0.280805   
     length 1.92526   
     axis 0 0 0   XYZ
    dof rx ry rz
    limits (-20.0 45.0)
           (-30.0 30.0)
           (-30.0 30.0)
  end
  begin
     id 16
     name head
     direction 0.0233423 0.993502 -0.111393  
     length 1.96056  
     axis 0 0 0   XYZ
    dof rx ry rz
    limits (-20.0 45.0)
           (-30.0 30.0)
           (-30.0 30.0)
  end
  begin
     id 17 
     name lclavicle
     direction 0.941873 0.32922 0.0670041  
     length 3.31705  
     axis 0 0 0   XYZ
    dof ry rz
    limits (-20.0 10.0)
           (0.0 20.0)
  end
  begin
     id 18 
     name lhumerus
     direction 1 -4.4898e-011 3.38707e-028   
     length 5.29277   
     axis 180 -30 -90   XYZ
    dof rx ry rz
    limits (-60.0 90.0)
           (-90.0 90.0)
           (-90.0 90.0)
  end
  begin
     id 19
     name lradius
     direction 1 -4.48952e-011 1.63213e-028   
     length 2.85226   
     axis 180 -30 -90   XYZ
    dof rx
    limits (-10.0 170.0)
  end
  begin
     id 20
     name lwrist
     direction 1 -4.49001e-011 1.27856e-027   
     length 1.42613   
     axis -1.61767e-015 90 90   XYZ
    dof ry
    limits (-180.0 0.0)
 end
  begin
     id 21 
     name lhand
     direction 1 -4.48976e-011 2.55931e-027   
     length 0.602097   
     axis -1.63363e-015 90 90   XYZ
    dof rx rz
    limits (-90.0 90.0)
           (-45.0 45.0)
  end
  begin
     id 22 
     name lfingers
     direction 1 -4.48986e-011 5.11684e-027   
     length 0.485426   
     axis -3.26723e-015 90 90   XYZ
    dof rx
    limits (0.0 90.0)
  end
  begin
     id 23
     name lthumb
     direction 0.707107 -6.34915e-011 0.707107   
     length 0.696978   
     axis -90 45 -2.25915e-014   XYZ
    dof rx rz
    limits (-45.0 45.0)
           (-45.0 45.0)
  end
  begin
     id 24 
     name rclavicle
     direction -0.939974 0.327078 0.0973096   
     length 3.10337  
     axis 0 0 0   XYZ 
    dof ry rz
    limits (-10.0 20.0)
           (-20.0 0.0)
  end
  begin
     id 25 
     name rhumerus
     direction -1 -4.48975e-011 1.83745e-027  
     length 5.13304   
     axis 180 30 90   XYZ
    dof rx ry rz
    limits (-90.0 60.0)
           (-90.0 90.0)
           (-90.0 90.0)
  end
  begin
     id 26 
     name rradius
     direction -1 -4.48977e-011 7.1775e-029   
     length 2.74305   
     axis 180 30 90   XYZ
    dof rx
    limits (-10.0 170.0)
  end
  begin
     id 27 
     name rwrist
     direction -1 -4.48977e-011 1.27963e-027   
     length 1.37152   
     axis -1.61767e-015 -90 -90   XYZ
    dof ry
    limits (-180.0 0.0)
  end
  begin
     id 28
     name rhand
     direction -1 -4.4888e-011 2.56782e-027   
     length 0.767976   
     axis -1.63363e-015 -90 -90   XYZ
    dof rx rz
    limits (-90.0 90.0)
           (-45.0 45.0)
  end
  begin
     id 29
     name rfingers
     direction -1 -4.48947e-011 5.12384e-027   
     length 0.619162   
     axis -3.26723e-015 -90 -90   XYZ
    dof rx
    limits (0.0 90.0)
  end
  begin
     id 30
     name rthumb
     direction -0.707107 -6.34857e-011 0.707107   
     length 0.888997   
     axis -90 -45 2.25915e-014   XYZ
    dof rx rz
    limits (-45.0 45.0)
           (-45.0 45.0)
  end
:hierarchy
  begin
    root lhipjoint rhipjoint lowerback
    lhipjoint lfemur
    lfemur ltibia
    ltibia lfoot
    lfoot ltoes
    rhipjoint rfemur
    rfemur rtibia
    rtibia rfoot
    rfoot rtoes
    lowerback upperback
    upperback thorax
    thorax lowerneck lclavicle rclavicle
    lowerneck upperneck
    upperneck head
    lclavicle lhumerus
    lhumerus lradius
    lradius lwrist
    lwrist lhand lthumb
    lhand lfingers
    rclavicle rhumerus
    rhumerus rradius
    rradius rwrist
    rwrist rhand rthumb
    rhand rfingers
  end

#!OML:ASF F:\VICON\USERDATA\INSTALL\rory3\rory3.ASF
:FULLY-SPECIFIED
:DEGREES
246
root -0.07068 16.0611 -1.53548 -1.56991 -4.55194 -3.73389
lowerback 13.117 -1.10382 -7.10388
upperback 13.0281 -1.93394 -3.14884
thorax 6.74349 -1.40789 0.74227
lowerneck -4.18781 -7.0266 -17.076
upperneck 6.10377 -10.5195 25.3803
head 4.87752 -4.82698 10.4403
rclavicle 4.77083e-015 2.38542e-014
rhumerus 1.61047 21.8876 -6.7193
rradius 67.0352
rwrist -29.5799
rhand 2.56911 -2.00488
rfingers 7.12502
rthumb 28.0487 -29.9283
lclavicle 4.77083e-015 2.38542e-014
lhumerus 6.74032 6.79219 47.5822
lradius 15.2297
lwrist -72.8002
lhand 8.45421 39.87
lfingers 7.12502
lthumb 33.6588 66.7288
rfemur -24.092 -3.61666 22.6673
rtibia 50.5326
rfoot -33.7992 1.03999
rtoes -15.2265
lfemur -24.3677 7.25277 -12.0686
ltibia 54.6107
lfoot -26.5591 -2.78128
ltoes -21.6186
247
root -0.060288 16.0517 -1.54296 -1.43847 -5.33139 -4.12348
lowerback 13.336 -1.05685 -7.0924
upperback 12.9035 -1.89224 -3.56741
thorax 6.46447 -1.35859 0.301443
lowerneck -4.01149 -6.96332 -17.2504
upperneck 6.20068 -10.5127 25.8
head 4.91001 -4.82988 10.6414
rclavicle -1.43125e-014 -1.59028e-015
rhumerus 0.44372 19.5467 -7.55642
rradius 67.306
rwrist -28.7292
rhand 2.56788 -1.76453
rfingers 7.12502
rthumb 28.0476 -29.6881
lclavicle -1.43125e-014 -1.59028e-015
lhumerus 6.61946 6.95106 48.1819
lradius 15.4515
lwrist -71.6586
lhand 7.27181 41.3924
lfingers 7.12502
lthumb 32.5344 68.4897
rfemur -24.2407 -3.24902 23.0549
rtibia 50.6578
rfoot -33.9526 1.91636
rtoes -13.0786
lfemur -24.5029 7.63787 -11.6297
ltibia 55.0607
lfoot -26.7898 -2.68435
ltoes -20.6263
248
root -0.0509925 16.0429 -1.54733 -1.25731 -6.13046 -4.52617
lowerback 13.5014 -0.96529 -7.25322
upperback 12.6832 -1.81316 -3.85397
thorax 6.12125 -1.30794 0.0950954
lowerneck -3.59943 -6.8252 -17.3303
upperneck 6.23147 -10.3861 25.9069
head 4.82389 -4.79651 10.7252
rclavicle 2.06736e-014 3.18055e-015
rhumerus -0.817096 17.4596 -7.99201
rradius 67.857
rwrist -28.4212
rhand 2.97086 -1.58077
rfingers 7.12502
rthumb 28.4327 -29.4407
lclavicle 2.06736e-014 3.18055e-015
lhumerus 6.029 5.66541 48.7178
lradius 16.3593
lwrist -70.104
lhand 7.31467 42.3973
lfingers 7.12502
lthumb 32.5752 69.4862
rfemur -24.5637 -2.92088 23.5333
rtibia 50.6726
rfoot -33.8984 2.1585
rtoes -13.8776
lfemur -24.6724 8.05843 -11.175
ltibia 55.5104
lfoot -27.059 -2.60351
ltoes -19.8845
249
root -0.0431994 16.0249 -1.55866 -0.986745 -6.90071 -4.99191
lowerback 13.6123 -0.891229 -7.6514
upperback 12.5803 -1.77213 -3.93274
thorax 5.9645 -1.31085 0.234565
lowerneck -3.63083 -6.71491 -17.3888
upperneck 6.2637 -10.2109 25.7373
head 4.78875 -4.71463 10.6906
rclavicle 2.22639e-014 7.95139e-015
rhumerus -1.59061 15.0604 -8.11187
rradius 68.2411
rwrist -28.3847
rhand 3.48631 -1.3384
rfingers 7.12502
rthumb 28.9252 -29.115
lclavicle 2.22639e-014 7.95139e-015
lhumerus 5.42606 4.00746 49.3215
lradius 17.6318
lwrist -67.9725
lhand 8.2783 43.1559
lfingers 7.12502
lthumb 33.4916 70.051
rfemur -24.8633 -2.51282 24.0299
rtibia 50.8323
rfoot -33.95 2.78384
rtoes -12.965
lfemur -24.9972 8.52238 -10.6449
ltibia 55.9942
lfoot -27.2561 -2.47673
ltoes -19.6534
250
root -0.0322794 16.0054 -1.56659 -0.621716 -7.66531 -5.67544
lowerback 13.5992 -0.843583 -7.7996
upperback 12.5678 -1.72869 -3.92969
thorax 5.9635 -1.30347 0.315551
lowerneck -3.85189 -6.66941 -17.5237
upperneck 6.22744 -10.0913 25.6201
head 4.7903 -4.6501 10.6769
rclavicle 1.11319e-014 2.54444e-014
rhumerus -2.06411 12.5954 -7.99422
rradius 68.5319
rwrist -28.6688
rhand 4.09662 -1.4264
rfingers 7.12502
rthumb 29.5079 -29.1016
lclavicle 1.11319e-014 2.54444e-014
lhumerus 5.16864 2.53517 50.0239
lradius 18.7408
lwrist -65.561
lhand 9.57521 43.1391
lfingers 7.12502
lthumb 34.7233 69.7593
rfemur -25.3737 -2.29516 24.8407
rtibia 50.7486
rfoot -33.7537 3.00784
rtoes -13.4552
lfemur -25.3972 8.95021 -9.90211
ltibia 56.5146
lfoot -27.4614 -2.14767
ltoes -19.9049
